# xmcd
#
# Track frame offsets: 
#        150
#        18091
#        44481
#        69477
#        87282
#        105260
#        122285
#        142570
#        159745
#        178625
#        193140
#        214108
#        263536
#        280796
#        307780
#        329306
#
# Disc length: 4760 seconds
#
# Revision: 0
# Processed by: cddbd v1.5.2PL0 Copyright (c) Steve Scherf et al.
# Submitted via: ExactAudioCopy v1.1
#
DISCID=c9129610
DTITLE=Various Artist - Akella Presents - vol.106 - Blues-Rock  CD2
DYEAR=2017
DGENRE=Blues
TTITLE0=Big Chris and D'Bare Bones Band - Bound for a Throne
TTITLE1=Thorbjorn Risager and The Black Tornado - Dreamland
TTITLE2=Jeff Westlake - So Much Love to Give
TTITLE3=Rory Kelly's Triple Threat - Beginning of the End
TTITLE4=Mad Shadow - Long Road Blues
TTITLE5=Boneyard Dog - Bluesbound Train
TTITLE6=Interstate Blues - Don't Lead Me Blind
TTITLE7=Wille And The Bandits - Living Free
TTITLE8=Jason Elmore and Hoodoo Witch - Dusk Till Dawn
TTITLE9=Bihlman Bros. - Memphis Thang
TTITLE10=Five Horse Johnson - The Job
TTITLE11=The Devil And The Almighty Blues - These Are Old Hands
TTITLE12=Matt O'Ree Band - Black Boots
TTITLE13=Mad Shadow - I Own The Road
TTITLE14=Shaw Davis and the Black Ties - Set Me Free
TTITLE15=Othman Wahabi - Celestial Quest
EXTD=
EXTT0=
EXTT1=
EXTT2=
EXTT3=
EXTT4=
EXTT5=
EXTT6=
EXTT7=
EXTT8=
EXTT9=
EXTT10=
EXTT11=
EXTT12=
EXTT13=
EXTT14=
EXTT15=
PLAYORDER=
